<?xml version="1.0" encoding="utf-8"?>
<?xml-stylesheet type="text/xsl" href="rss1.xsl"?>
<rss version="2.0" xmlns:atom="http://www.w3.org/2005/Atom" xmlns:content="http://purl.org/rss/1.0/modules/content/" xmlns:dc="http://purl.org/dc/elements/1.1/" xmlns:media="http://search.yahoo.com/mrss/">
<channel>
 <title>Getty</title>
 <link>http://www.gettyimg.com/</link>
 <atom:link href="http://www.gettyimg.com/" rel="self" type="application/rss+xml" />

 
                <item>
                <title><![CDATA[【Apple Music】WEB-RiP - Paramore - Thick Skull [Apple HD Music Video]]]></title>
                <link><![CDATA[https://sharemania.us/threads/paramore-thick-skull-apple-hd-music-video.242425/]]></link>
                <description><![CDATA[<article>
<blockquote class="messageText SelectQuoteContainer ugc baseHtml">
<span style="font-size: 22px"><b>Paramore - Thick Skull [Apple HD Music Video]</b></span><br>
<br>
<img src="https://imgur.com/qa8rHsO.jpg" class="bbCodeImage LbImage" alt="[​IMG]" data-url="https://imgur.com/qa8rHsO.jpg" style=""><br>
<br>
<div class="bbCodeBlock bbCodeCode">
<div class="type">Code:</div>
<pre>General
Format                         : MPEG-4
Codec ID                       : M4V  (isom/iso4/M4V /mp42)
File size                      : 301 MiB
Duration                       : 4 min 5 s
Overall bit rate mode          : Variable
Overall bit rate               : 10.3 Mb/s
Movie name                     : Thick Skull
Performer                      : Paramore
Genre                          : Alternative
ContentType                    : Music Video
Recorded date                  : UTC 2024-03-05 08:00:00
Encoded date                   : UTC 2024-03-24 10:44:56
Tagged date                    : UTC 2024-03-24 10:44:56
Copyright                      : ℗ © 2022 Atlantic Recording Group LLC
Cover                          : Yes
Rating                         : None
GenreID                        : 1620
AppleStoreCountry              : Canada
AlbumTitleID                   : 75950796
AppleStoreCatalogID            : 1734518163

Video
ID                             : 2
Format                         : AVC
Format/Info                    : Advanced Video Codec
Format profile                 : High@L4
Format settings                : CABAC / 4 Ref Frames
Format settings, CABAC         : Yes
Format settings, Reference fra : 4 frames
Format settings, GOP           : M=2, N=89
Codec ID                       : avc1
Codec ID/Info                  : Advanced Video Coding
Duration                       : 4 min 5 s
Bit rate                       : 10.0 Mb/s
Maximum bit rate               : 15.9 Mb/s
Width                          : 1 920 pixels
Height                         : 1 080 pixels
Display aspect ratio           : 16:9
Frame rate mode                : Constant
Frame rate                     : 23.976 (24000/1001) FPS
Color space                    : YUV
Chroma subsampling             : 4:2:0
Bit depth                      : 8 bits
Scan type                      : Progressive
Bits/(Pixel*Frame)             : 0.201
Stream size                    : 293 MiB (97%)
Title                          : Core Media Video
Encoded date                   : UTC 2024-03-05 23:57:48
Tagged date                    : UTC 2024-03-24 10:45:15
Color range                    : Limited
Color primaries                : BT.709
Transfer characteristics       : BT.709
Matrix coefficients            : BT.709
Codec configuration box        : avcC

Audio
ID                             : 1
Format                         : AAC LC
Format/Info                    : Advanced Audio Codec Low Complexity
Codec ID                       : mp4a-40-2
Duration                       : 4 min 5 s
Duration_LastFrame             : -2 ms
Bit rate mode                  : Variable
Bit rate                       : 275 kb/s
Maximum bit rate               : 494 kb/s
Channel(s)                     : 2 channels
Channel layout                 : L R
Sampling rate                  : 48.0 kHz
Frame rate                     : 46.875 FPS (1024 SPF)
Compression mode               : Lossy
Stream size                    : 8.03 MiB (3%)
Title                          : Core Media Audio
Encoded date                   : UTC 2024-03-05 23:57:30
Tagged date                    : UTC 2024-03-24 10:45:15
</pre>
</div>
<div class="bbCodeBlock bbCodeVfcHH HiddenContent">
<div class="attribution type">Hidden Content:</div>
<blockquote>You must reply before you can see the hidden data contained here.</blockquote>
</div>
<div class="messageTextEndMarker">&nbsp;</div>
</blockquote>
</article>]]></description>
                <author><![CDATA[abby0511]]></author>
                </item>

                </channel></rss>